<?xml version="1.0" encoding="utf-8"?>
<!-- Generator: Adobe Illustrator 16.0.4, SVG Export Plug-In . SVG Version: 6.00 Build 0)  -->
<!DOCTYPE svg PUBLIC "-//W3C//DTD SVG 1.1//EN" "http://www.w3.org/Graphics/SVG/1.1/DTD/svg11.dtd">
<svg version="1.1" id="Layer_1" xmlns="http://www.w3.org/2000/svg" xmlns:xlink="http://www.w3.org/1999/xlink" x="0px" y="0px"
	 width="263.163px" height="48.992px" viewBox="0 0 263.163 48.992" enable-background="new 0 0 263.163 48.992"
	 xml:space="preserve">
<g>
	<g opacity="0.75">
		<path fill-rule="evenodd" clip-rule="evenodd" fill="#F4BD2C" d="M204.09,17.626c1.288,0.52,1.203,2.073,2.116,2.877
			c2.241,0,4.451,0,7.02,0c0-2.308-0.049-4.509,0.018-6.708c0.043-1.453-0.306-2.364-1.676-3.31c-3.06-2.115-3.141-4.627-0.732-7.87
			L211,2.912c0.028,0.186,0.135,0.292,0.322,0.318l0.299,0.168c-0.957,1.554-1.468,3.154-0.155,4.746
			c0.832,1.009,1.976,1.524,3.279,1.144c2.084-0.608,2.793-2.2,2.755-4.234c0.272-0.308,0.546-0.616,0.818-0.923
			c0.584,1.708,2,1.505,3.365,1.501c5.354-0.017,10.706-0.007,16.272-0.007c0,12.001,0,23.792,0,35.742
			c-2.064,0.53-4.238,0.229-6.604,0.167c0-6.458,0-12.669,0-19.142c-3.718,0-7.259,0-11.113,0c0,6.28,0,12.593,0,19.07
			c-2.386,0-4.467,0-6.866,0c0-6.301,0-12.606,0-19.161c-3.436,0.004-6.811-1.417-9.099,2.163c-0.309-0.268-0.616-0.536-0.925-0.804
			c1.265-1.764,1.28-3.529,0.009-5.297l0.239-0.163c0.204-0.01,0.312-0.117,0.321-0.322L204.09,17.626z M231.127,7.268
			c-4.149,0-8.066,0-10.978,0c-5.551,3.465-6.219,7.967-4.92,13.167c5.252,0,10.524,0,15.897,0
			C231.127,16.047,231.127,11.848,231.127,7.268z"/>
		<path fill-rule="evenodd" clip-rule="evenodd" fill="#F4BD2C" d="M174.238,8.898c-0.425,1.519-2.062,1.679-3.092,2.731
			c0,2.771,0,5.625,0,8.609c1.47,0.991,3.338-0.101,5.195,0.748c0,6.236,0,12.547,0,18.996c3.752,0,7.212,0,10.982,0
			c0-11.257,0-22.561,0-33.976c2.438-0.697,4.607-0.257,7.071-0.389c0,9.884,0.039,19.471-0.031,29.057
			c-0.015,2.089-4.87,6.896-6.957,6.926c-5.851,0.083-11.704,0.029-17.886,0.029c0-6.51,0-12.811,0-19.359
			c-3.151-0.134-6.099-1.033-8.005,2.191c-0.313-0.286-0.627-0.572-0.939-0.858c1.275-1.74,1.285-3.476-0.016-5.208l0.255-0.175
			c0.213-0.016,0.329-0.13,0.347-0.341l0.171-0.252c1.231,0.562,1.312,1.965,1.931,2.93c2.008,0,3.857,0,5.858,0
			c0.653-2.577,0.185-5.165,0.321-7.715c0.051-0.951-0.306-1.555-1.219-2.043c-3.084-1.653-3.369-4.293-2.341-7.31
			c0.23-0.29,0.462-0.579,0.693-0.868l0.003-0.004c0.196-0.015,0.39-0.042,0.582-0.082c0.3,0.233,0.601,0.467,0.901,0.7
			c-1.478,1.664-1.954,3.476-0.206,5.151c1.898,1.819,3.763,1.076,5.442-0.525C173.613,8.206,173.925,8.552,174.238,8.898z"/>
		<path fill-rule="evenodd" clip-rule="evenodd" fill="#F4BD2C" d="M264.061,21.754c-0.001,2.733-2.324,4.99-5.034,4.894
			c-2.587-0.092-4.634-2.238-4.647-4.869c-0.015-2.716,2.327-5.02,5.005-4.923C261.915,16.947,264.063,19.197,264.061,21.754z
			 M259.083,18.341c-1.923,0.354-3.19,1.437-3.12,3.491c0.068,2.018,1.272,3.287,3.334,3.245c2.079-0.044,3.211-1.426,3.172-3.407
			C262.43,19.673,261.177,18.539,259.083,18.341z"/>
		<path fill-rule="evenodd" clip-rule="evenodd" fill="#F4BD2C" d="M255.886,43.835c-1.198-1.695-2.662-2.438-4.896-2.271
			c-3.544,0.265-7.122,0.07-10.673,0.07c-0.078-1.884,1.077-1.477,1.806-1.487c3.344-0.052,6.69-0.104,10.03,0.015
			c1.396,0.05,2.37-0.318,3.049-1.508c0.26,0.326,0.521,0.651,0.78,0.977c-0.28,1.246,0.086,2.362,0.684,3.434l-0.222,0.207
			c-0.245,0.008-0.37,0.131-0.372,0.37L255.886,43.835z"/>
		<path fill-rule="evenodd" clip-rule="evenodd" fill="#F4BD2C" d="M262.709,44.125c-1.736,2.152-3.653,4.104-6.141,5.867
			c-0.542-2.222,1.302-2.799,1.905-4.206c-0.408-1.061-2.23-0.619-2.588-1.95l0.187-0.193c0.246,0.008,0.37-0.116,0.372-0.37
			l0.222-0.207c1.685,1.053,3.373,1.117,5.065,0.018C262.058,43.429,262.383,43.777,262.709,44.125z"/>
		<path fill-rule="evenodd" clip-rule="evenodd" fill="#F4BD2C" d="M262.709,44.125c-0.326-0.348-0.651-0.695-0.978-1.042
			c0.407-0.926,0.965-1.807,0.839-2.887c-0.15-0.269-0.302-0.537-0.453-0.805c-2.141-2.376-4.163-1.715-6.135,0.24
			c-0.26-0.325-0.521-0.65-0.78-0.977c2.746-2.97,4.075-3.093,7.369-0.682c0.201,0.219,0.401,0.438,0.603,0.655
			c0.237,0.113,0.324,0.297,0.26,0.553c-0.018,1.342-0.035,2.684-0.053,4.025C263.373,43.67,263.153,43.979,262.709,44.125z"/>
		<path fill-rule="evenodd" clip-rule="evenodd" fill="#F4BD2C" d="M160.577,23.603c0.312,0.287,0.626,0.573,0.939,0.858
			c-3.698,2.387-5.784,1.837-7.832-2.064c0-0.93,0-1.861-0.001-2.791c-0.072-0.202-0.019-0.361,0.162-0.478l0.371-0.015l0.371,0.018
			l-0.012-0.011c0.027,0.544,0.054,1.088,0.08,1.632c0.075,0.165,0.075,0.33,0,0.495c-0.209,0.703-0.073,1.274,0.62,1.636
			C156.852,24.531,158.609,24.845,160.577,23.603z"/>
		<path fill-rule="evenodd" clip-rule="evenodd" fill="#F4BD2C" d="M203.349,23.659c0.309,0.268,0.616,0.536,0.925,0.804
			c-3.514,2.29-5.166,1.957-7.701-1.555c-0.001-1.268-0.001-2.537-0.002-3.805l0.039,0.034c0.271,0.009,0.542,0.017,0.812,0.024
			c0.017,0.565,0.034,1.129,0.053,1.693l0.002,0.287c-0.321,0.759-0.021,1.303,0.598,1.738
			C199.611,24.635,201.397,24.713,203.349,23.659z"/>
		<path fill-rule="evenodd" clip-rule="evenodd" fill="#F4BD2C" d="M218.318,4.13c-0.272,0.308-0.546,0.615-0.818,0.923
			c-1.463-2.316-3.347-3.136-5.879-1.655l-0.299-0.168l-0.037-0.28L211,2.912l-0.164-0.296C214.186,0.188,215.94,0.542,218.318,4.13
			z"/>
		<path fill-rule="evenodd" clip-rule="evenodd" fill="#F4BD2C" d="M197.423,19.162c-0.271-0.008-0.542-0.016-0.813-0.025
			c2.386-3.551,4.208-3.919,7.48-1.51l-0.172,0.25l-0.271,0.052l-0.051,0.27l-0.239,0.163c-1.951-1.067-3.736-0.988-5.279,0.763
			C197.86,19.141,197.642,19.153,197.423,19.162z"/>
		<path fill-rule="evenodd" clip-rule="evenodd" fill="#F4BD2C" d="M154.433,18.116c2.146-2.346,4.406-3.065,6.9-0.489l-0.171,0.252
			l-0.283,0.059l-0.063,0.282l-0.255,0.175c-1.948-1.151-3.726-1.045-5.276,0.72c-0.236,0-0.473,0.001-0.709,0.006l0.012,0.011
			C154.536,18.793,154.485,18.455,154.433,18.116z"/>
		<path fill-rule="evenodd" clip-rule="evenodd" fill="#F4BD2C" d="M168.064,3.234c-0.301-0.233-0.602-0.467-0.901-0.7
			c0.047-0.222,0.107-0.441,0.18-0.655l-0.004,0.003c0.486-0.258,0.972-0.516,1.458-0.774c1.697-0.001,3.491-0.308,4.617,1.478
			c-0.272,0.254-0.546,0.509-0.818,0.764C171.104,2.546,169.596,2.392,168.064,3.234z"/>
		<path fill-rule="evenodd" clip-rule="evenodd" fill="#F4BD2C" d="M174.238,8.898c-0.312-0.347-0.625-0.692-0.938-1.039
			c0.005-1.234,0.009-2.468,0.013-3.702c-0.046-0.164,0.002-0.294,0.144-0.388l0.273,0.022l0.018-0.305l0.151-0.128l0.197,0.011
			C175.608,5.175,175.509,7.022,174.238,8.898z"/>
		<path fill-rule="evenodd" clip-rule="evenodd" fill="#F4BD2C" d="M196.571,19.103c0.001,1.268,0.001,2.537,0.002,3.805
			C195.577,21.64,195.571,20.372,196.571,19.103z"/>
		<path fill-rule="evenodd" clip-rule="evenodd" fill="#F4BD2C" d="M263.381,43.207c0.018-1.342,0.035-2.684,0.053-4.025
			C264.375,40.536,264.453,41.878,263.381,43.207z"/>
		<path fill-rule="evenodd" clip-rule="evenodd" fill="#F4BD2C" d="M153.683,19.607c0.001,0.93,0.001,1.86,0.001,2.791
			C152.92,21.468,152.919,20.538,153.683,19.607z"/>
		<path fill-rule="evenodd" clip-rule="evenodd" fill="#F4BD2C" d="M172.595,3.35c0.272-0.255,0.546-0.51,0.818-0.764
			c0.228,0.262,0.455,0.523,0.683,0.784l-0.197-0.011l-0.151,0.128c-0.14,0.051-0.236,0.145-0.291,0.283
			c-0.142,0.094-0.189,0.224-0.144,0.388C173.074,3.888,172.834,3.619,172.595,3.35z"/>
		<path fill-rule="evenodd" clip-rule="evenodd" fill="#F4BD2C" d="M168.796,1.108c-0.486,0.258-0.972,0.516-1.458,0.774
			C167.639,1.274,168.145,1.054,168.796,1.108z"/>
		<path fill-rule="evenodd" clip-rule="evenodd" fill="#F4BD2C" d="M263.174,38.628c-0.201-0.218-0.401-0.437-0.603-0.655
			C262.773,38.192,262.973,38.411,263.174,38.628z"/>
		<path fill-rule="evenodd" clip-rule="evenodd" fill="#F4BD2C" d="M166.578,2.621c-0.231,0.29-0.463,0.579-0.693,0.868
			C166.115,3.199,166.346,2.91,166.578,2.621z"/>
		<path fill-rule="evenodd" clip-rule="evenodd" fill="#F4BD2C" d="M154.433,18.116c0.052,0.339,0.103,0.678,0.154,1.017
			l-0.371-0.018l-0.371,0.015C153.783,18.642,153.983,18.306,154.433,18.116z"/>
		<path fill-rule="evenodd" clip-rule="evenodd" fill="#F4BD2C" d="M167.342,1.879c-0.072,0.214-0.133,0.434-0.18,0.655
			c-0.192,0.04-0.386,0.067-0.582,0.082C166.834,2.37,167.089,2.124,167.342,1.879z"/>
		<path fill-rule="evenodd" clip-rule="evenodd" fill="#F4BD2C" d="M211,2.912l0.285,0.038l0.037,0.28
			C211.134,3.205,211.028,3.098,211,2.912z"/>
		<path fill-rule="evenodd" clip-rule="evenodd" fill="#F4BD2C" d="M203.597,18.199l0.051-0.27l0.271-0.052
			C203.909,18.082,203.801,18.189,203.597,18.199z"/>
		<path fill-rule="evenodd" clip-rule="evenodd" fill="#F4BD2C" d="M160.816,18.221l0.063-0.282l0.283-0.059
			C161.145,18.091,161.029,18.205,160.816,18.221z"/>
		<path fill-rule="evenodd" clip-rule="evenodd" fill="#F4BD2C" d="M256.445,43.272c-0.002,0.254-0.126,0.378-0.372,0.37
			C256.075,43.403,256.2,43.28,256.445,43.272z"/>
		<path fill-rule="evenodd" clip-rule="evenodd" fill="#F4BD2C" d="M262.571,40.196c-0.15-0.269-0.302-0.537-0.453-0.805
			C262.269,39.659,262.42,39.927,262.571,40.196z"/>
		<path fill-rule="evenodd" clip-rule="evenodd" fill="#F4BD2C" d="M154.656,21.248c0.207,0.545,0.413,1.09,0.62,1.636
			C154.583,22.522,154.447,21.951,154.656,21.248z"/>
		<path fill-rule="evenodd" clip-rule="evenodd" fill="#F4BD2C" d="M155.285,19.116c-0.21,0.546-0.419,1.092-0.629,1.638
			c-0.026-0.544-0.053-1.088-0.08-1.632C154.812,19.117,155.048,19.116,155.285,19.116z"/>
		<path fill-rule="evenodd" clip-rule="evenodd" fill="#F4BD2C" d="M197.476,21.142c0.199,0.58,0.398,1.158,0.598,1.738
			C197.455,22.445,197.155,21.901,197.476,21.142z"/>
		<path fill-rule="evenodd" clip-rule="evenodd" fill="#F4BD2C" d="M198.079,19.125c-0.202,0.576-0.403,1.153-0.604,1.73
			c-0.019-0.564-0.036-1.128-0.053-1.693C197.642,19.153,197.86,19.141,198.079,19.125z"/>
		<path fill-rule="evenodd" clip-rule="evenodd" fill="#F4BD2C" d="M173.457,3.77c0.055-0.138,0.151-0.231,0.291-0.283l-0.018,0.305
			L173.457,3.77z"/>
	</g>
	<g>
		<g>
			<path fill-rule="evenodd" clip-rule="evenodd" fill="#FFFFFF" d="M203.09,16.626c1.288,0.52,1.203,2.073,2.116,2.877
				c2.241,0,4.451,0,7.02,0c0-2.308-0.049-4.509,0.018-6.708c0.043-1.453-0.306-2.364-1.676-3.31
				c-3.06-2.115-3.141-4.627-0.732-7.87L210,1.912c0.028,0.186,0.135,0.292,0.322,0.318l0.299,0.168
				c-0.957,1.554-1.468,3.154-0.155,4.746c0.832,1.009,1.976,1.524,3.279,1.144c2.084-0.608,2.793-2.2,2.755-4.234
				c0.272-0.308,0.546-0.616,0.818-0.923c0.584,1.708,2,1.505,3.365,1.501c5.354-0.017,10.706-0.007,16.272-0.007
				c0,12.001,0,23.792,0,35.742c-2.064,0.53-4.238,0.229-6.604,0.167c0-6.458,0-12.669,0-19.142c-3.718,0-7.259,0-11.113,0
				c0,6.28,0,12.593,0,19.07c-2.386,0-4.467,0-6.866,0c0-6.301,0-12.606,0-19.161c-3.436,0.004-6.811-1.417-9.099,2.163
				c-0.309-0.268-0.616-0.536-0.925-0.804c1.265-1.764,1.28-3.529,0.009-5.297l0.239-0.163c0.204-0.01,0.312-0.117,0.321-0.322
				L203.09,16.626z M230.127,6.268c-4.149,0-8.066,0-10.978,0c-5.551,3.465-6.219,7.967-4.92,13.167c5.252,0,10.524,0,15.897,0
				C230.127,15.047,230.127,10.848,230.127,6.268z"/>
			<path fill-rule="evenodd" clip-rule="evenodd" fill="#FFFFFF" d="M173.238,7.898c-0.425,1.519-2.062,1.679-3.092,2.731
				c0,2.771,0,5.625,0,8.609c1.47,0.991,3.338-0.101,5.195,0.748c0,6.236,0,12.547,0,18.996c3.752,0,7.212,0,10.982,0
				c0-11.257,0-22.561,0-33.976c2.438-0.697,4.607-0.257,7.071-0.389c0,9.884,0.039,19.471-0.031,29.057
				c-0.015,2.089-4.87,6.896-6.957,6.926c-5.851,0.083-11.704,0.029-17.886,0.029c0-6.51,0-12.811,0-19.359
				c-3.151-0.134-6.099-1.033-8.005,2.191c-0.313-0.286-0.627-0.572-0.939-0.858c1.275-1.74,1.285-3.476-0.016-5.208l0.255-0.175
				c0.213-0.016,0.329-0.13,0.347-0.341l0.171-0.252c1.231,0.562,1.312,1.965,1.931,2.93c2.008,0,3.857,0,5.858,0
				c0.653-2.577,0.185-5.165,0.321-7.715c0.051-0.951-0.306-1.555-1.219-2.043c-3.084-1.653-3.369-4.293-2.341-7.31
				c0.23-0.29,0.462-0.579,0.693-0.868l0.003-0.004c0.196-0.015,0.39-0.042,0.582-0.082c0.3,0.233,0.601,0.467,0.901,0.7
				c-1.478,1.664-1.954,3.476-0.206,5.151c1.898,1.819,3.763,1.076,5.442-0.525C172.613,7.206,172.925,7.552,173.238,7.898z"/>
			<path fill-rule="evenodd" clip-rule="evenodd" fill="#FFFFFF" d="M263.061,20.754c-0.001,2.733-2.324,4.99-5.034,4.894
				c-2.587-0.092-4.634-2.238-4.647-4.869c-0.015-2.716,2.327-5.02,5.005-4.923C260.915,15.947,263.063,18.197,263.061,20.754z
				 M258.083,17.341c-1.923,0.354-3.19,1.437-3.12,3.491c0.068,2.018,1.272,3.288,3.334,3.245c2.079-0.044,3.211-1.426,3.172-3.407
				C261.43,18.673,260.177,17.539,258.083,17.341z"/>
			<path fill-rule="evenodd" clip-rule="evenodd" fill="#FFFFFF" d="M254.886,42.835c-1.198-1.695-2.662-2.438-4.896-2.271
				c-3.544,0.265-7.122,0.07-10.673,0.07c-0.078-1.884,1.077-1.477,1.806-1.487c3.344-0.052,6.69-0.104,10.03,0.015
				c1.396,0.05,2.37-0.318,3.049-1.508c0.26,0.326,0.521,0.651,0.78,0.977c-0.28,1.246,0.086,2.362,0.684,3.434l-0.222,0.207
				c-0.245,0.008-0.37,0.131-0.372,0.37L254.886,42.835z"/>
			<path fill-rule="evenodd" clip-rule="evenodd" fill="#FFFFFF" d="M261.709,43.125c-1.736,2.152-3.653,4.104-6.141,5.867
				c-0.542-2.222,1.302-2.799,1.905-4.206c-0.408-1.061-2.23-0.619-2.588-1.95l0.187-0.193c0.246,0.008,0.37-0.116,0.372-0.37
				l0.222-0.207c1.685,1.053,3.373,1.117,5.065,0.018C261.058,42.429,261.383,42.777,261.709,43.125z"/>
			<path fill-rule="evenodd" clip-rule="evenodd" fill="#FFFFFF" d="M261.709,43.125c-0.326-0.348-0.651-0.695-0.978-1.042
				c0.407-0.926,0.965-1.807,0.839-2.887c-0.15-0.269-0.302-0.537-0.453-0.805c-2.141-2.376-4.163-1.715-6.135,0.24
				c-0.26-0.325-0.521-0.65-0.78-0.977c2.746-2.97,4.075-3.093,7.369-0.682c0.201,0.219,0.401,0.438,0.603,0.655
				c0.237,0.113,0.324,0.297,0.26,0.553c-0.018,1.342-0.035,2.684-0.053,4.025C262.373,42.67,262.153,42.979,261.709,43.125z"/>
			<path fill-rule="evenodd" clip-rule="evenodd" fill="#FFFFFF" d="M159.577,22.603c0.312,0.287,0.626,0.573,0.939,0.858
				c-3.698,2.387-5.784,1.837-7.832-2.064c0-0.93,0-1.861-0.001-2.791c-0.072-0.202-0.019-0.361,0.162-0.478l0.371-0.015
				l0.371,0.018l-0.012-0.011c0.027,0.544,0.054,1.088,0.08,1.632c0.075,0.165,0.075,0.33,0,0.495
				c-0.209,0.703-0.073,1.274,0.62,1.636C155.852,23.531,157.609,23.845,159.577,22.603z"/>
			<path fill-rule="evenodd" clip-rule="evenodd" fill="#FFFFFF" d="M202.349,22.659c0.309,0.268,0.616,0.536,0.925,0.804
				c-3.514,2.29-5.166,1.957-7.701-1.555c-0.001-1.268-0.001-2.537-0.002-3.805l0.039,0.034c0.271,0.009,0.542,0.017,0.812,0.024
				c0.017,0.565,0.034,1.129,0.053,1.693l0.002,0.287c-0.321,0.759-0.021,1.303,0.598,1.738
				C198.611,23.636,200.397,23.713,202.349,22.659z"/>
			<path fill-rule="evenodd" clip-rule="evenodd" fill="#FFFFFF" d="M217.318,3.13c-0.272,0.308-0.546,0.615-0.818,0.923
				c-1.463-2.316-3.347-3.136-5.879-1.655l-0.299-0.168l-0.037-0.28L210,1.912l-0.164-0.296
				C213.186-0.812,214.94-0.458,217.318,3.13z"/>
			<path fill-rule="evenodd" clip-rule="evenodd" fill="#FFFFFF" d="M196.423,18.162c-0.271-0.008-0.542-0.016-0.813-0.025
				c2.386-3.551,4.208-3.919,7.48-1.51l-0.172,0.25l-0.271,0.052l-0.051,0.27l-0.239,0.163c-1.951-1.067-3.736-0.988-5.279,0.763
				C196.86,18.141,196.642,18.153,196.423,18.162z"/>
			<path fill-rule="evenodd" clip-rule="evenodd" fill="#FFFFFF" d="M153.433,17.116c2.146-2.346,4.406-3.065,6.9-0.489
				l-0.171,0.252l-0.283,0.059l-0.063,0.282l-0.255,0.175c-1.948-1.151-3.726-1.045-5.276,0.72c-0.236,0-0.473,0.001-0.709,0.006
				l0.012,0.011C153.536,17.793,153.485,17.455,153.433,17.116z"/>
			<path fill-rule="evenodd" clip-rule="evenodd" fill="#FFFFFF" d="M167.064,2.234c-0.301-0.233-0.602-0.467-0.901-0.7
				c0.047-0.222,0.107-0.441,0.18-0.655l-0.004,0.003c0.486-0.258,0.972-0.516,1.458-0.774c1.697-0.001,3.491-0.308,4.617,1.478
				c-0.272,0.254-0.546,0.509-0.818,0.764C170.104,1.546,168.596,1.392,167.064,2.234z"/>
			<path fill-rule="evenodd" clip-rule="evenodd" fill="#FFFFFF" d="M173.238,7.898c-0.312-0.347-0.625-0.692-0.938-1.039
				c0.005-1.234,0.009-2.468,0.013-3.702c-0.046-0.164,0.002-0.294,0.144-0.388l0.273,0.022l0.018-0.305l0.151-0.128l0.197,0.011
				C174.608,4.175,174.509,6.022,173.238,7.898z"/>
			<path fill-rule="evenodd" clip-rule="evenodd" fill="#FFFFFF" d="M195.571,18.103c0.001,1.268,0.001,2.537,0.002,3.805
				C194.577,20.64,194.571,19.372,195.571,18.103z"/>
			<path fill-rule="evenodd" clip-rule="evenodd" fill="#FFFFFF" d="M262.381,42.207c0.018-1.342,0.035-2.684,0.053-4.025
				C263.375,39.536,263.453,40.878,262.381,42.207z"/>
			<path fill-rule="evenodd" clip-rule="evenodd" fill="#FFFFFF" d="M152.683,18.607c0.001,0.93,0.001,1.86,0.001,2.791
				C151.92,20.468,151.919,19.538,152.683,18.607z"/>
			<path fill-rule="evenodd" clip-rule="evenodd" fill="#FFFFFF" d="M171.595,2.35c0.272-0.255,0.546-0.51,0.818-0.764
				c0.228,0.262,0.455,0.523,0.683,0.784l-0.197-0.011l-0.151,0.128c-0.14,0.051-0.236,0.145-0.291,0.283
				c-0.142,0.094-0.189,0.224-0.144,0.388C172.074,2.888,171.834,2.619,171.595,2.35z"/>
			<path fill-rule="evenodd" clip-rule="evenodd" fill="#FFFFFF" d="M167.796,0.108c-0.486,0.258-0.972,0.516-1.458,0.774
				C166.639,0.274,167.145,0.054,167.796,0.108z"/>
			<path fill-rule="evenodd" clip-rule="evenodd" fill="#FFFFFF" d="M262.174,37.628c-0.201-0.218-0.401-0.437-0.603-0.655
				C261.773,37.192,261.973,37.411,262.174,37.628z"/>
			<path fill-rule="evenodd" clip-rule="evenodd" fill="#FFFFFF" d="M165.578,1.621c-0.231,0.29-0.463,0.579-0.693,0.868
				C165.115,2.199,165.346,1.91,165.578,1.621z"/>
			<path fill-rule="evenodd" clip-rule="evenodd" fill="#FFFFFF" d="M153.433,17.116c0.052,0.339,0.103,0.678,0.154,1.017
				l-0.371-0.018l-0.371,0.015C152.783,17.642,152.983,17.306,153.433,17.116z"/>
			<path fill-rule="evenodd" clip-rule="evenodd" fill="#FFFFFF" d="M166.342,0.879c-0.072,0.214-0.133,0.434-0.18,0.655
				c-0.192,0.04-0.386,0.067-0.582,0.082C165.834,1.37,166.089,1.124,166.342,0.879z"/>
			<path fill-rule="evenodd" clip-rule="evenodd" fill="#FFFFFF" d="M210,1.912l0.285,0.038l0.037,0.28
				C210.134,2.205,210.028,2.098,210,1.912z"/>
			<path fill-rule="evenodd" clip-rule="evenodd" fill="#FFFFFF" d="M202.597,17.199l0.051-0.27l0.271-0.052
				C202.909,17.082,202.801,17.189,202.597,17.199z"/>
			<path fill-rule="evenodd" clip-rule="evenodd" fill="#FFFFFF" d="M159.816,17.221l0.063-0.282l0.283-0.059
				C160.145,17.091,160.029,17.205,159.816,17.221z"/>
			<path fill-rule="evenodd" clip-rule="evenodd" fill="#FFFFFF" d="M255.445,42.272c-0.002,0.254-0.126,0.378-0.372,0.37
				C255.075,42.403,255.2,42.28,255.445,42.272z"/>
			<path fill-rule="evenodd" clip-rule="evenodd" fill="#FFFFFF" d="M261.571,39.196c-0.15-0.269-0.302-0.537-0.453-0.805
				C261.269,38.659,261.42,38.927,261.571,39.196z"/>
			<path fill-rule="evenodd" clip-rule="evenodd" fill="#FFFFFF" d="M153.656,20.248c0.207,0.545,0.413,1.09,0.62,1.636
				C153.583,21.522,153.447,20.951,153.656,20.248z"/>
			<path fill-rule="evenodd" clip-rule="evenodd" fill="#FFFFFF" d="M154.285,18.116c-0.21,0.546-0.419,1.092-0.629,1.638
				c-0.026-0.544-0.053-1.088-0.08-1.632C153.812,18.117,154.048,18.116,154.285,18.116z"/>
			<path fill-rule="evenodd" clip-rule="evenodd" fill="#FFFFFF" d="M196.476,20.142c0.199,0.58,0.398,1.158,0.598,1.738
				C196.455,21.445,196.155,20.901,196.476,20.142z"/>
			<path fill-rule="evenodd" clip-rule="evenodd" fill="#FFFFFF" d="M197.079,18.125c-0.202,0.576-0.403,1.153-0.604,1.73
				c-0.019-0.564-0.036-1.128-0.053-1.693C196.642,18.153,196.86,18.141,197.079,18.125z"/>
			<path fill-rule="evenodd" clip-rule="evenodd" fill="#FFFFFF" d="M172.457,2.77c0.055-0.138,0.151-0.231,0.291-0.283
				l-0.018,0.305L172.457,2.77z"/>
		</g>
	</g>
</g>
<g>
	<g opacity="0.75">
		<path fill-rule="evenodd" clip-rule="evenodd" fill="#512F75" d="M31.444,4.693c-0.055-0.217-0.001-0.401,0.16-0.556l0.358-0.031
			l0.359,0.027c0,0-0.016-0.014-0.015-0.014c0.03,0.54,0.059,1.08,0.088,1.62c0.053,0.173,0.053,0.346,0,0.519
			c-0.255,0.719-0.092,1.279,0.621,1.629c1.433,1.566,3.121,2.198,4.917,0.786c1.945-1.531,1.581-3.424,0.363-5.28l0.25-0.178
			c0.221-0.018,0.34-0.138,0.359-0.357l0.186-0.265c1.271,0.549,1.171,2.109,2.237,3.028c7.745,0,15.597,0,23.692,0
			c0,9.428,0,18.72,0,28.535c-4.121-0.855-8.781,1.972-12.45-2.276c-0.269-0.258-0.538-0.514-0.807-0.771
			c3.998-4.837,1.094-10.357,2.018-15.518c-4.042-0.243-7.07,1.917-7.182,5.021c-0.143,3.954-0.035,7.916-0.035,11.848
			c1.741,0.262,3.204,0.42,4.496-0.59l0.182,0.18c0.011,0.263,0.148,0.399,0.411,0.411l0.196,0.196
			c-1.626,2.837-4.281,0.867-6.828,1.658c0-5.108-0.227-9.952,0.075-14.764c0.224-3.574,4.917-5.952,10.04-5.332
			c0,6.027,0,12.099,0,18.029c1.143,0.514,1.994,0.401,3.015,0.167c0-8.317,0-16.63,0-25.116c-5.732,0-11.312,0-17.205,0
			c-0.527,2.012-2.087,3.343-4.088,4.136c0,2.927,0,5.656,0,8.388c1.548,0.988,3.26,0.114,5.093,0.747c0,6.294,0,12.726,0,19.585
			c7.945,0,15.598,0,23.259,0c-0.031,1.899-1.182,1.447-1.906,1.451c-6.746,0.039-13.492,0.057-20.237,0.01
			c-3.186-0.021-7.844-4.775-7.877-7.974c-0.039-3.747-0.009-7.496-0.009-11.243c0-3.623,0-7.246,0-10.854
			c-0.961-0.781-1.896-1.541-2.831-2.3c0.021-0.391-0.149-0.622-0.552-0.66c-0.192-0.188-0.275-0.415-0.247-0.683
			C31.515,6.833,31.479,5.763,31.444,4.693z"/>
		<path fill-rule="evenodd" clip-rule="evenodd" fill="#512F75" d="M9.097,2.576c2.819,3.834,2.346,5.876-2.283,9.151
			c0,1.348,0,2.835,0,4.322c0,1.365,0,2.731,0,4.336c4.894,0,9.698,0,14.847,0c0-4.512,0-9.188,0-14.097c2.474,0,4.615,0,6.958,0
			c0,11.641,0,23.208,0,35.007c-1.977,0.764-4.186,0.146-6.637,0.356c0-6.444,0-12.749,0-19.238c-3.313-0.53-6.37-0.227-9.726-0.229
			c0,6.417,0,12.719,0,19.23c-2.46,0-4.621,0-6.967,0c0-10.046,0-19.996,0-29.923C2.447,9.739-0.243,8.02,1.612,4.136
			C1.896,4.479,2.179,4.82,2.463,5.164c0.124,1.957,0.715,3.622,2.868,4.139c1.314,0.315,2.404-0.225,3.228-1.236
			c1.317-1.616,0.724-3.18-0.226-4.708l0.24-0.163c0.212-0.018,0.326-0.133,0.343-0.347L9.097,2.576z"/>
		<path fill-rule="evenodd" clip-rule="evenodd" fill="#512F75" d="M117.166,13.96c-1.768,2.037-3.535,4.073-5.64,6.497
			c4.519,0,8.664,0,13.052,0c0,7.111,0,13.897,0,20.884c-1.966,0.65-4.151,0.168-6.621,0.253c0-6.509,0-12.806,0-19.282
			c-3.348,0-6.405,0-9.751,0c0,6.281,0,12.58,0,19.096c-2.432,0-4.583,0-6.913,0c0-10.045,0-19.987,0-29.896
			c-2.828-1.769-5.521-3.488-3.669-7.372c0.662,0.357,0.566,1.078,0.79,1.646c0.63,2.392,1.862,4.364,4.624,3.317
			c2.892-1.097,2.787-3.38,1.295-5.733c0.144,0.027,0.252-0.022,0.326-0.148c0.163-0.042,0.263-0.146,0.3-0.312
			c0.124-0.088,0.175-0.207,0.153-0.357c2.836,3.902,2.346,6-2.132,8.996c0,2.924,0,5.874,0,8.773
			c4.066,1.207,7.071-0.073,9.53-3.227c0.978-1.255,2.31-2.233,3.481-3.337c0.328,0.004,0.655,0.01,0.983,0.014L117.166,13.96z"/>
		<path fill-rule="evenodd" clip-rule="evenodd" fill="#512F75" d="M75.088,2.598c1.194,0.603,1.32,1.999,2.06,3.055
			c6.044,0,12.013,0,18.204,0c0,2.956,0,5.752,0,8.731c-2.077,0.495-4.25,0.181-6.6,0.19c0-2.483,0-4.699,0-7.181
			c-3.958,0-7.753,0-11.847,0c-0.455,2.022-2.173,3.187-4.045,4.035c0,2.956,0,5.685,0,8.409c1.57,0.955,3.276,0.109,5.104,0.73
			c0,6.299,0,12.729,0,19.357c3.592,0,6.898,0,10.521,0c0-2.231,0-4.532,0-7.062c2.469,0,4.63,0,6.944,0c0,2.87,0,5.667,0,8.616
			c-8.071,0-16,0-24.118,0c0-10.082,0-20.025,0-29.979c-2.908-1.706-5.459-3.504-3.657-7.353c0.274,0.335,0.547,0.669,0.821,1.004
			c-0.038,1.872,0.598,3.376,2.456,4.062c1.44,0.531,2.675-0.032,3.592-1.134c1.316-1.582,0.749-3.172-0.201-4.703l0.29-0.152
			c0.181-0.029,0.286-0.133,0.314-0.314L75.088,2.598z"/>
		<path fill-rule="evenodd" clip-rule="evenodd" fill="#512F75" d="M116.961,12.79c0-2.223,0-4.446,0-6.77
			c2.28-0.787,4.456-0.169,6.805-0.46c0,2.556,0,4.84,0,7.252c-2.043,0.981-4.631-0.553-6.6,1.149l-0.19-0.188
			C116.971,13.445,116.966,13.118,116.961,12.79z"/>
		<path fill-rule="evenodd" clip-rule="evenodd" fill="#512F75" d="M148.637,36.359c1.357,0.412,2.154,1.303,2.331,2.726
			c0,0.947,0.001,1.894,0.001,2.84c-2.405,4.608-6.23,4.794-9.053,0.439c0.939-1.002,0.925-1.994-0.029-2.978
			c-0.1-0.661,0.169-1.143,0.725-1.484l0.236,0.157l0.057,0.278l0.27,0.058l0.178,0.256c-0.29,1.757-0.577,3.485,1.307,4.666
			c1.887,1.183,3.303,0.329,4.664-0.94c0.695-0.418,0.854-1.025,0.629-1.771v-0.201c0.225-0.744,0.067-1.353-0.629-1.771
			l0.014-0.013c-0.23-0.257-0.461-0.513-0.691-0.769l-0.038-0.034c-0.305-0.211-0.609-0.422-0.914-0.633
			c-0.874,0.017-1.748,0.032-2.622,0.049c-0.332-0.032-0.664-0.065-0.996-0.099l0.001-0.001c0.005-0.237,0.015-0.474,0.029-0.71
			l0.035-0.017c0.586,0.026,1.101-0.107,1.438-0.64c0.777-0.199,1.548-0.299,2.278,0.161
			C148.118,36.074,148.377,36.215,148.637,36.359z"/>
		<path fill-rule="evenodd" clip-rule="evenodd" fill="#512F75" d="M141.887,39.386c0.954,0.983,0.969,1.976,0.029,2.978
			c-2.549-1.55-5.341-0.409-8.006-0.7c-2.282-0.25-4.634,0.283-7.29-0.448c1.273-1.592,2.705-0.948,3.907-1.088
			C134.301,39.688,138.189,40.999,141.887,39.386z"/>
		<path fill-rule="evenodd" clip-rule="evenodd" fill="#512F75" d="M98.415,5.786c-0.224-0.568-0.128-1.289-0.79-1.646
			c2.27-3.553,4.175-3.957,7.489-1.587c0.021,0.15-0.03,0.269-0.153,0.357l-0.291,0.028l-0.01,0.284
			c-0.074,0.126-0.183,0.175-0.326,0.148C101.387,1.789,99.565,2.967,98.415,5.786z"/>
		<path fill-rule="evenodd" clip-rule="evenodd" fill="#512F75" d="M68.475,5.151c-0.274-0.335-0.547-0.669-0.821-1.004
			c2.213-3.528,4.146-3.931,7.434-1.548l-0.163,0.311l-0.282,0.032l-0.032,0.283l-0.29,0.152
			C71.745,1.898,69.882,2.774,68.475,5.151z"/>
		<path fill-rule="evenodd" clip-rule="evenodd" fill="#512F75" d="M2.463,5.164C2.179,4.82,1.896,4.479,1.612,4.136
			c2.324-3.535,4.175-3.921,7.485-1.56l-0.18,0.273L8.633,2.914l-0.06,0.282l-0.24,0.163C5.741,1.896,3.87,2.772,2.463,5.164z"/>
		<path fill-rule="evenodd" clip-rule="evenodd" fill="#512F75" d="M32.148,3.118c2.149-2.348,4.423-3.05,6.942-0.525l-0.186,0.265
			l-0.289,0.069l-0.07,0.289l-0.25,0.178c-1.94-1.113-3.722-1.076-5.263,0.721c-0.242,0.008-0.484,0.01-0.726,0.005l0.016,0.014
			C32.264,3.795,32.207,3.457,32.148,3.118z"/>
		<path fill-rule="evenodd" clip-rule="evenodd" fill="#512F75" d="M31.444,4.693c0.035,1.07,0.07,2.14,0.106,3.21
			C30.648,6.861,30.58,5.792,31.444,4.693z"/>
		<path fill-rule="evenodd" clip-rule="evenodd" fill="#512F75" d="M150.969,41.924c0-0.946-0.001-1.893-0.001-2.84
			C151.719,40.03,151.72,40.977,150.969,41.924z"/>
		<path fill-rule="evenodd" clip-rule="evenodd" fill="#512F75" d="M51.763,31.109c0.269,0.257,0.538,0.513,0.807,0.771
			c-0.24,0.258-0.481,0.518-0.721,0.777l-0.196-0.196c-0.011-0.262-0.148-0.398-0.411-0.411l-0.182-0.18
			C51.294,31.616,51.528,31.363,51.763,31.109z"/>
		<path fill-rule="evenodd" clip-rule="evenodd" fill="#512F75" d="M142.612,37.902c-0.02-0.456,0.206-0.717,0.644-0.808
			c0.273,0.013,0.547,0.026,0.82,0.041l-0.001,0.001c-0.006,0.245-0.005,0.491,0.004,0.736c-0.242,0.26-0.483,0.519-0.727,0.778
			l-0.178-0.256c-0.01-0.208-0.118-0.319-0.326-0.336L142.612,37.902z"/>
		<path fill-rule="evenodd" clip-rule="evenodd" fill="#512F75" d="M145.579,35.769c-0.338,0.532-0.853,0.666-1.438,0.64
			C144.484,35.89,144.948,35.643,145.579,35.769z"/>
		<path fill-rule="evenodd" clip-rule="evenodd" fill="#512F75" d="M144.076,37.135c-0.273-0.015-0.547-0.028-0.82-0.041
			c0.101-0.455,0.38-0.683,0.85-0.669C144.09,36.662,144.081,36.898,144.076,37.135z"/>
		<path fill-rule="evenodd" clip-rule="evenodd" fill="#512F75" d="M148.637,36.359c-0.26-0.144-0.52-0.285-0.78-0.429
			C148.118,36.074,148.377,36.215,148.637,36.359z"/>
		<path fill-rule="evenodd" clip-rule="evenodd" fill="#512F75" d="M32.148,3.118c0.058,0.338,0.115,0.677,0.173,1.015l-0.359-0.027
			l-0.358,0.031C31.525,3.658,31.688,3.309,32.148,3.118z"/>
		<path fill-rule="evenodd" clip-rule="evenodd" fill="#512F75" d="M116.961,12.79c0.005,0.328,0.01,0.656,0.015,0.983
			c-0.329-0.005-0.656-0.01-0.984-0.015C116.314,13.435,116.638,13.113,116.961,12.79z"/>
		<path fill-rule="evenodd" clip-rule="evenodd" fill="#512F75" d="M31.797,8.585c0.402,0.038,0.572,0.269,0.552,0.66
			C31.954,9.203,31.736,9.011,31.797,8.585z"/>
		<path fill-rule="evenodd" clip-rule="evenodd" fill="#512F75" d="M33.032,4.114c-0.212,0.542-0.424,1.083-0.637,1.625
			c-0.029-0.54-0.059-1.08-0.088-1.62C32.548,4.124,32.791,4.123,33.032,4.114z"/>
		<path fill-rule="evenodd" clip-rule="evenodd" fill="#512F75" d="M32.395,6.258c0.207,0.542,0.414,1.086,0.621,1.629
			C32.303,7.537,32.14,6.977,32.395,6.258z"/>
		<path fill-rule="evenodd" clip-rule="evenodd" fill="#512F75" d="M38.545,3.215l0.07-0.289l0.289-0.069
			C38.886,3.078,38.766,3.197,38.545,3.215z"/>
		<path fill-rule="evenodd" clip-rule="evenodd" fill="#512F75" d="M51.242,32.049c0.262,0.013,0.399,0.149,0.411,0.411
			C51.39,32.449,51.253,32.312,51.242,32.049z"/>
		<path fill-rule="evenodd" clip-rule="evenodd" fill="#512F75" d="M8.573,3.196l0.06-0.282l0.284-0.064
			C8.899,3.063,8.785,3.178,8.573,3.196z"/>
		<path fill-rule="evenodd" clip-rule="evenodd" fill="#512F75" d="M104.66,3.222l0.01-0.284l0.291-0.028
			C104.923,3.076,104.823,3.18,104.66,3.222z"/>
		<path fill-rule="evenodd" clip-rule="evenodd" fill="#512F75" d="M74.611,3.224l0.032-0.283l0.282-0.032
			C74.897,3.09,74.792,3.195,74.611,3.224z"/>
		<path fill-rule="evenodd" clip-rule="evenodd" fill="#512F75" d="M149.323,42.376c0.209-0.59,0.419-1.181,0.629-1.771
			C150.176,41.351,150.018,41.958,149.323,42.376z"/>
		<path fill-rule="evenodd" clip-rule="evenodd" fill="#512F75" d="M149.952,40.405c-0.21-0.59-0.419-1.181-0.629-1.771
			C150.019,39.052,150.176,39.661,149.952,40.405z"/>
		<path fill-rule="evenodd" clip-rule="evenodd" fill="#512F75" d="M149.336,38.622c-0.23-0.257-0.461-0.513-0.691-0.769
			C148.875,38.109,149.106,38.365,149.336,38.622z"/>
		<path fill-rule="evenodd" clip-rule="evenodd" fill="#512F75" d="M142.848,38.059c0.208,0.017,0.316,0.128,0.326,0.336
			l-0.27-0.058L142.848,38.059z"/>
		<path fill-rule="evenodd" clip-rule="evenodd" fill="#512F75" d="M148.607,37.819c-0.305-0.211-0.609-0.422-0.914-0.633
			C147.998,37.397,148.302,37.608,148.607,37.819z"/>
		<path fill-rule="evenodd" clip-rule="evenodd" fill="#512F75" d="M145.071,37.235c-0.331,0.213-0.661,0.425-0.992,0.638
			c-0.009-0.245-0.01-0.491-0.004-0.736C144.407,37.169,144.739,37.203,145.071,37.235z"/>
	</g>
	<g>
		<g>
			<path fill-rule="evenodd" clip-rule="evenodd" fill="#FFFFFF" d="M30.444,3.693c-0.055-0.217-0.001-0.401,0.16-0.556l0.358-0.031
				l0.359,0.027c0,0-0.016-0.014-0.015-0.014c0.03,0.54,0.059,1.08,0.088,1.62c0.053,0.173,0.053,0.346,0,0.519
				c-0.255,0.719-0.092,1.279,0.621,1.629c1.433,1.566,3.121,2.198,4.917,0.786c1.945-1.531,1.581-3.424,0.363-5.28l0.25-0.178
				c0.221-0.018,0.34-0.138,0.359-0.357l0.186-0.265c1.271,0.549,1.171,2.109,2.237,3.028c7.745,0,15.597,0,23.692,0
				c0,9.428,0,18.72,0,28.535c-4.121-0.855-8.781,1.972-12.45-2.276c-0.269-0.258-0.538-0.514-0.807-0.771
				c3.998-4.837,1.094-10.357,2.018-15.518c-4.042-0.243-7.07,1.917-7.182,5.021c-0.143,3.954-0.035,7.916-0.035,11.848
				c1.741,0.262,3.204,0.42,4.496-0.59l0.182,0.18c0.011,0.263,0.148,0.399,0.411,0.411l0.196,0.196
				c-1.626,2.837-4.281,0.867-6.828,1.658c0-5.108-0.227-9.952,0.075-14.764c0.224-3.574,4.917-5.952,10.04-5.332
				c0,6.027,0,12.099,0,18.029c1.143,0.514,1.994,0.401,3.015,0.167c0-8.317,0-16.63,0-25.116c-5.732,0-11.312,0-17.205,0
				c-0.527,2.012-2.087,3.343-4.088,4.136c0,2.927,0,5.656,0,8.388c1.548,0.988,3.26,0.114,5.093,0.747c0,6.294,0,12.726,0,19.585
				c7.945,0,15.598,0,23.259,0c-0.031,1.899-1.182,1.447-1.906,1.451c-6.746,0.039-13.492,0.057-20.237,0.01
				c-3.186-0.021-7.844-4.775-7.877-7.974c-0.039-3.747-0.009-7.496-0.009-11.243c0-3.623,0-7.246,0-10.854
				c-0.961-0.781-1.896-1.541-2.831-2.3c0.021-0.391-0.149-0.622-0.552-0.66c-0.192-0.188-0.275-0.415-0.247-0.683
				C30.515,5.833,30.479,4.763,30.444,3.693z"/>
			<path fill-rule="evenodd" clip-rule="evenodd" fill="#FFFFFF" d="M8.097,1.576c2.819,3.834,2.346,5.876-2.283,9.151
				c0,1.348,0,2.835,0,4.322c0,1.365,0,2.731,0,4.336c4.894,0,9.698,0,14.847,0c0-4.512,0-9.188,0-14.097c2.474,0,4.615,0,6.958,0
				c0,11.641,0,23.208,0,35.007c-1.977,0.764-4.186,0.146-6.637,0.356c0-6.444,0-12.749,0-19.238
				c-3.313-0.53-6.37-0.227-9.726-0.229c0,6.417,0,12.719,0,19.23c-2.46,0-4.621,0-6.967,0c0-10.046,0-19.996,0-29.923
				C1.447,8.739-1.243,7.02,0.612,3.136C0.896,3.479,1.179,3.82,1.463,4.164c0.124,1.957,0.715,3.622,2.868,4.139
				c1.314,0.315,2.404-0.225,3.228-1.236c1.317-1.616,0.724-3.18-0.226-4.708l0.24-0.163c0.212-0.018,0.326-0.133,0.343-0.347
				L8.097,1.576z"/>
			<path fill-rule="evenodd" clip-rule="evenodd" fill="#FFFFFF" d="M116.166,12.96c-1.768,2.037-3.535,4.073-5.64,6.497
				c4.519,0,8.664,0,13.052,0c0,7.111,0,13.897,0,20.884c-1.966,0.65-4.151,0.168-6.621,0.253c0-6.509,0-12.806,0-19.282
				c-3.348,0-6.405,0-9.751,0c0,6.281,0,12.58,0,19.096c-2.432,0-4.583,0-6.913,0c0-10.045,0-19.987,0-29.896
				c-2.828-1.769-5.521-3.488-3.669-7.372c0.662,0.357,0.566,1.078,0.79,1.646c0.63,2.392,1.862,4.364,4.624,3.317
				c2.892-1.097,2.787-3.38,1.295-5.733c0.144,0.027,0.252-0.022,0.326-0.148c0.163-0.042,0.263-0.146,0.3-0.312
				c0.124-0.088,0.175-0.207,0.153-0.357c2.836,3.902,2.346,6-2.132,8.996c0,2.924,0,5.874,0,8.773
				c4.066,1.207,7.071-0.073,9.53-3.227c0.978-1.255,2.31-2.233,3.481-3.337c0.328,0.004,0.655,0.01,0.983,0.014L116.166,12.96z"/>
			<path fill-rule="evenodd" clip-rule="evenodd" fill="#FFFFFF" d="M74.088,1.598c1.194,0.603,1.32,1.999,2.06,3.055
				c6.044,0,12.013,0,18.204,0c0,2.956,0,5.752,0,8.731c-2.077,0.495-4.25,0.181-6.6,0.19c0-2.483,0-4.699,0-7.181
				c-3.958,0-7.753,0-11.847,0c-0.455,2.022-2.173,3.187-4.045,4.035c0,2.956,0,5.685,0,8.409c1.57,0.955,3.276,0.109,5.104,0.73
				c0,6.299,0,12.729,0,19.357c3.592,0,6.898,0,10.521,0c0-2.231,0-4.532,0-7.062c2.469,0,4.63,0,6.944,0c0,2.87,0,5.667,0,8.616
				c-8.071,0-16,0-24.118,0c0-10.082,0-20.025,0-29.979c-2.908-1.706-5.459-3.504-3.657-7.353c0.274,0.335,0.547,0.669,0.821,1.004
				c-0.038,1.872,0.598,3.376,2.456,4.062c1.44,0.531,2.675-0.032,3.592-1.134c1.316-1.582,0.749-3.172-0.201-4.703l0.29-0.152
				c0.181-0.029,0.286-0.133,0.314-0.314L74.088,1.598z"/>
			<path fill-rule="evenodd" clip-rule="evenodd" fill="#FFFFFF" d="M115.961,11.79c0-2.223,0-4.446,0-6.77
				c2.28-0.787,4.456-0.169,6.805-0.46c0,2.556,0,4.84,0,7.252c-2.043,0.981-4.631-0.553-6.6,1.149l-0.19-0.188
				C115.971,12.445,115.966,12.118,115.961,11.79z"/>
			<path fill-rule="evenodd" clip-rule="evenodd" fill="#FFFFFF" d="M147.637,35.359c1.357,0.412,2.154,1.303,2.331,2.726
				c0,0.947,0.001,1.894,0.001,2.84c-2.405,4.608-6.23,4.794-9.053,0.439c0.939-1.002,0.925-1.994-0.029-2.978
				c-0.1-0.661,0.169-1.143,0.725-1.484l0.236,0.157l0.057,0.278l0.27,0.058l0.178,0.256c-0.29,1.757-0.577,3.485,1.307,4.666
				c1.887,1.183,3.303,0.329,4.664-0.94c0.695-0.418,0.854-1.025,0.629-1.771v-0.201c0.225-0.744,0.067-1.353-0.629-1.771
				l0.014-0.013c-0.23-0.257-0.461-0.513-0.691-0.769l-0.038-0.034c-0.305-0.211-0.609-0.422-0.914-0.633
				c-0.874,0.017-1.748,0.032-2.622,0.049c-0.332-0.032-0.664-0.065-0.996-0.099l0.001-0.001c0.005-0.237,0.015-0.474,0.029-0.71
				l0.035-0.017c0.586,0.026,1.101-0.107,1.438-0.64c0.777-0.199,1.548-0.299,2.278,0.161
				C147.118,35.074,147.377,35.215,147.637,35.359z"/>
			<path fill-rule="evenodd" clip-rule="evenodd" fill="#FFFFFF" d="M140.887,38.386c0.954,0.983,0.969,1.976,0.029,2.978
				c-2.549-1.55-5.341-0.409-8.006-0.7c-2.282-0.25-4.634,0.283-7.29-0.448c1.273-1.592,2.705-0.948,3.907-1.088
				C133.301,38.688,137.189,39.999,140.887,38.386z"/>
			<path fill-rule="evenodd" clip-rule="evenodd" fill="#FFFFFF" d="M97.415,4.786c-0.224-0.568-0.128-1.289-0.79-1.646
				c2.27-3.553,4.175-3.957,7.489-1.587c0.021,0.15-0.03,0.269-0.153,0.357l-0.291,0.028l-0.01,0.284
				c-0.074,0.126-0.183,0.175-0.326,0.148C100.387,0.789,98.565,1.967,97.415,4.786z"/>
			<path fill-rule="evenodd" clip-rule="evenodd" fill="#FFFFFF" d="M67.475,4.151c-0.274-0.335-0.547-0.669-0.821-1.004
				c2.213-3.528,4.146-3.931,7.434-1.548l-0.163,0.311l-0.282,0.032l-0.032,0.283l-0.29,0.152
				C70.745,0.898,68.882,1.774,67.475,4.151z"/>
			<path fill-rule="evenodd" clip-rule="evenodd" fill="#FFFFFF" d="M1.463,4.164C1.179,3.82,0.896,3.479,0.612,3.136
				c2.324-3.535,4.175-3.921,7.485-1.56l-0.18,0.273L7.633,1.914l-0.06,0.282l-0.24,0.163C4.741,0.896,2.87,1.772,1.463,4.164z"/>
			<path fill-rule="evenodd" clip-rule="evenodd" fill="#FFFFFF" d="M31.148,2.118c2.149-2.348,4.423-3.05,6.942-0.525l-0.186,0.265
				l-0.289,0.069l-0.07,0.289l-0.25,0.178c-1.94-1.113-3.722-1.076-5.263,0.721c-0.242,0.008-0.484,0.01-0.726,0.005l0.016,0.014
				C31.264,2.795,31.207,2.457,31.148,2.118z"/>
			<path fill-rule="evenodd" clip-rule="evenodd" fill="#FFFFFF" d="M30.444,3.693c0.035,1.07,0.07,2.14,0.106,3.21
				C29.648,5.861,29.58,4.792,30.444,3.693z"/>
			<path fill-rule="evenodd" clip-rule="evenodd" fill="#FFFFFF" d="M149.969,40.924c0-0.946-0.001-1.893-0.001-2.84
				C150.719,39.03,150.72,39.977,149.969,40.924z"/>
			<path fill-rule="evenodd" clip-rule="evenodd" fill="#FFFFFF" d="M50.763,30.109c0.269,0.257,0.538,0.513,0.807,0.771
				c-0.24,0.258-0.481,0.518-0.721,0.777l-0.196-0.196c-0.011-0.262-0.148-0.398-0.411-0.411l-0.182-0.18
				C50.294,30.616,50.528,30.363,50.763,30.109z"/>
			<path fill-rule="evenodd" clip-rule="evenodd" fill="#FFFFFF" d="M141.612,36.902c-0.02-0.456,0.206-0.717,0.644-0.808
				c0.273,0.013,0.547,0.026,0.82,0.041l-0.001,0.001c-0.006,0.245-0.005,0.491,0.004,0.736c-0.242,0.26-0.483,0.519-0.727,0.778
				l-0.178-0.256c-0.01-0.208-0.118-0.319-0.326-0.336L141.612,36.902z"/>
			<path fill-rule="evenodd" clip-rule="evenodd" fill="#FFFFFF" d="M144.579,34.769c-0.338,0.532-0.853,0.666-1.438,0.64
				C143.484,34.89,143.948,34.643,144.579,34.769z"/>
			<path fill-rule="evenodd" clip-rule="evenodd" fill="#FFFFFF" d="M143.076,36.135c-0.273-0.015-0.547-0.028-0.82-0.041
				c0.101-0.455,0.38-0.683,0.85-0.669C143.09,35.662,143.081,35.898,143.076,36.135z"/>
			<path fill-rule="evenodd" clip-rule="evenodd" fill="#FFFFFF" d="M147.637,35.359c-0.26-0.144-0.52-0.285-0.78-0.429
				C147.118,35.074,147.377,35.215,147.637,35.359z"/>
			<path fill-rule="evenodd" clip-rule="evenodd" fill="#FFFFFF" d="M31.148,2.118c0.058,0.338,0.115,0.677,0.173,1.015
				l-0.359-0.027l-0.358,0.031C30.525,2.658,30.688,2.309,31.148,2.118z"/>
			<path fill-rule="evenodd" clip-rule="evenodd" fill="#FFFFFF" d="M115.961,11.79c0.005,0.328,0.01,0.656,0.015,0.983
				c-0.329-0.005-0.656-0.01-0.984-0.015C115.314,12.435,115.638,12.113,115.961,11.79z"/>
			<path fill-rule="evenodd" clip-rule="evenodd" fill="#FFFFFF" d="M30.797,7.585c0.402,0.038,0.572,0.269,0.552,0.66
				C30.954,8.203,30.736,8.011,30.797,7.585z"/>
			<path fill-rule="evenodd" clip-rule="evenodd" fill="#FFFFFF" d="M32.032,3.114c-0.212,0.542-0.424,1.083-0.637,1.625
				c-0.029-0.54-0.059-1.08-0.088-1.62C31.548,3.124,31.791,3.123,32.032,3.114z"/>
			<path fill-rule="evenodd" clip-rule="evenodd" fill="#FFFFFF" d="M31.395,5.258c0.207,0.542,0.414,1.086,0.621,1.629
				C31.303,6.537,31.14,5.977,31.395,5.258z"/>
			<path fill-rule="evenodd" clip-rule="evenodd" fill="#FFFFFF" d="M37.545,2.215l0.07-0.289l0.289-0.069
				C37.886,2.078,37.766,2.197,37.545,2.215z"/>
			<path fill-rule="evenodd" clip-rule="evenodd" fill="#FFFFFF" d="M50.242,31.049c0.262,0.013,0.399,0.149,0.411,0.411
				C50.39,31.449,50.253,31.312,50.242,31.049z"/>
			<path fill-rule="evenodd" clip-rule="evenodd" fill="#FFFFFF" d="M7.573,2.196l0.06-0.282l0.284-0.064
				C7.899,2.063,7.785,2.178,7.573,2.196z"/>
			<path fill-rule="evenodd" clip-rule="evenodd" fill="#FFFFFF" d="M103.66,2.222l0.01-0.284l0.291-0.028
				C103.923,2.076,103.823,2.18,103.66,2.222z"/>
			<path fill-rule="evenodd" clip-rule="evenodd" fill="#FFFFFF" d="M73.611,2.224l0.032-0.283l0.282-0.032
				C73.897,2.09,73.792,2.195,73.611,2.224z"/>
			<path fill-rule="evenodd" clip-rule="evenodd" fill="#FFFFFF" d="M148.323,41.376c0.209-0.59,0.419-1.181,0.629-1.771
				C149.176,40.351,149.018,40.958,148.323,41.376z"/>
			<path fill-rule="evenodd" clip-rule="evenodd" fill="#FFFFFF" d="M148.952,39.405c-0.21-0.59-0.419-1.181-0.629-1.771
				C149.019,38.052,149.176,38.661,148.952,39.405z"/>
			<path fill-rule="evenodd" clip-rule="evenodd" fill="#FFFFFF" d="M148.336,37.622c-0.23-0.257-0.461-0.513-0.691-0.769
				C147.875,37.109,148.106,37.365,148.336,37.622z"/>
			<path fill-rule="evenodd" clip-rule="evenodd" fill="#FFFFFF" d="M141.848,37.059c0.208,0.017,0.316,0.128,0.326,0.336
				l-0.27-0.058L141.848,37.059z"/>
			<path fill-rule="evenodd" clip-rule="evenodd" fill="#FFFFFF" d="M147.607,36.819c-0.305-0.211-0.609-0.422-0.914-0.633
				C146.998,36.397,147.302,36.608,147.607,36.819z"/>
			<path fill-rule="evenodd" clip-rule="evenodd" fill="#FFFFFF" d="M144.071,36.235c-0.331,0.213-0.661,0.425-0.992,0.638
				c-0.009-0.245-0.01-0.491-0.004-0.736C143.407,36.169,143.739,36.203,144.071,36.235z"/>
		</g>
	</g>
</g>
</svg>
