<?xml version="1.0" encoding="utf-8"?>
<!-- Generator: Adobe Illustrator 16.0.4, SVG Export Plug-In . SVG Version: 6.00 Build 0)  -->
<!DOCTYPE svg PUBLIC "-//W3C//DTD SVG 1.1//EN" "http://www.w3.org/Graphics/SVG/1.1/DTD/svg11.dtd">
<svg version="1.1" id="Layer_1" xmlns="http://www.w3.org/2000/svg" xmlns:xlink="http://www.w3.org/1999/xlink" x="0px" y="0px"
	 width="156px" height="197.333px" viewBox="0 0 156 197.333" enable-background="new 0 0 156 197.333" xml:space="preserve">
<path fill-rule="evenodd" clip-rule="evenodd" fill="#FEFCF8" d="M156,150.543c0,25.842-20.949,46.79-46.79,46.79H46.79
	c-25.841,0-46.79-20.948-46.79-46.79V46.79C0,20.949,20.949,0,46.79,0h62.42C135.051,0,156,20.949,156,46.79V150.543z"/>
<g>
	<path fill-rule="evenodd" clip-rule="evenodd" fill="#F4BC01" d="M18,122.287c0-27.284,0-54.569,0-81.854
		c5.705-6.72,13.079-14.41,21.368-11.561c8.317,2.856,7.864,14.058,9.171,22.254c0.988,6.192-0.036,12.627,1.428,18.846
		c-6.28,16.92-13.377,33.467-24.218,48.087C23.96,120.469,21.947,123.401,18,122.287z"/>
	<path fill-rule="evenodd" clip-rule="evenodd" fill="#FEFDFA" d="M18,122.287c14.391-14.481,19.147-34.566,29.8-51.223
		c-1.193-6.811-3-13.658,1.215-20.139c9.486,9.225,9.264,22.233,13.145,33.646c0.182,11.984-11.189,15.904-16.693,23.927
		c-1.247,2.209-2.595,4.365-3.525,6.747c-1.207,3.035-1.856,6.216-2.541,9.395c-3.219,6.971-4.38,14.81-8.833,21.224
		c-2.985,4.303-5.482,9.968-12.568,6.438C18,142.294,18,132.292,18,122.287z"/>
	<path fill-rule="evenodd" clip-rule="evenodd" fill="#FEFCF8" d="M50.221,51.352c-4.35,6.134-1.132,13.2-2.421,19.712
		c-4.188-13.222,0.173-28.217-9.5-40.581c-6.186,3.032-13.243,6.491-20.3,9.949c0-19.099,0-19.099,19.099-19.099
		c10.004,0,20.009,0,30.013,0c0.852,1.125,0.87,2.262,0.069,3.413c-7.8,2.513-12.736,6.957-12.583,16.064
		C54.66,44.52,54.236,48.917,50.221,51.352z"/>
	<path fill-rule="evenodd" clip-rule="evenodd" fill="#F5BE0D" d="M18,152.3c13.625-5.287,14.127-19.185,19.579-29.835
		c5.26,0.171,3.148,3.496,2.627,6.139c-3.722,12.521-3.391,28.13-22.206,29.153C18,155.937,18,154.12,18,152.3z"/>
	<path fill-rule="evenodd" clip-rule="evenodd" fill="#F4BD03" d="M92.026,26.423c0.819-0.834,1.639-1.671,2.458-2.505
		c5.762,1.079,11.66,1.687,17.263,3.312c24.958,7.248,28.393,11.975,28.393,37.746c-0.001,30.529,0,61.057,0,95.357
		c-10.487-14.431-10.557-30.663-23.847-38.428c-3.432-2.502-7.325-3.9-11.438-4.774c-2.878-2.084-5.922-3.979-8.589-6.302
		c-3.003-2.619-2.391-7.407,0.317-7.805c14.302-2.092,17.31-12.534,19.599-24.018c0.212-1.063,1.74-1.863,2.657-2.785
		c-0.806-1.015-1.571-2.06-2.305-3.128c-4.551-12.35-9.917-24.135-20.055-33.197C92.66,36.484,90.715,31.837,92.026,26.423z"/>
	<path fill-rule="evenodd" clip-rule="evenodd" fill="#F4BD03" d="M118.848,72.889c-0.003,1.111-0.007,2.223-0.009,3.333
		c-7.619-2.946-15.121-5.454-19.111,5.127c-0.578-0.131-1.156-0.261-1.736-0.376c-8.791-2.696-15.943,2.18-23.501,5.124
		c-3.124,1.854-5.807,4.572-9.675,4.975c-2.985,0.072-4.399-1.942-5.607-4.231c-3.475-11.708-8.475-23.029-8.987-35.488
		c-1.32-7.341,1.401-14.482,1.308-21.921c-0.089-7.123,9.751-4.463,15.324-5.838c7.193,2.206,15.408-2.654,22.076,3.189
		c0.177,6.75-1.896,12.172-8.083,15.859c-4.764,2.843-7.903,7.229-9.327,12.739c-3.254,12.606,0.186,15.644,13.135,13.544
		C96.217,67.048,108.55,62.34,118.848,72.889z"/>
	<path fill-rule="evenodd" clip-rule="evenodd" fill="#F5BF0E" d="M59.208,86.84c1.64,0.88,3.28,1.756,4.92,2.633
		c0.872,5.929,0.155,12.371,5.466,16.858c0.136,0.882,0.692,2.303,0.347,2.574c-13.912,10.879-2.273,24.958-4.819,37.188
		c-0.79,3.794,4.951,10.2-2.166,10.893c-4.358,0.424-2.988-6.427-3.749-10.125c-0.536-2.611-0.585-5.321-0.852-7.988
		c-3.738-7.056-3.164-15.223-5.805-22.454c-0.633,2.158-1.732,3.522-4.166,2.881c-0.245-1.362-0.489-2.727-0.734-4.091
		c-0.587-3.16-7.505-1.431-5.245-6.789c-0.675-5.835,4.336-6.855,7.671-9.592C53.962,95.644,59.817,93.58,59.208,86.84z"/>
	<path fill-rule="evenodd" clip-rule="evenodd" fill="#F6C62C" d="M104.855,117.131c5.731-3.003,10.647-4.056,11.438,4.774
		c-1.452,10.182,3.027,20.61-1.821,31.921C111.441,140.813,112.068,127.85,104.855,117.131z"/>
	<path fill-rule="evenodd" clip-rule="evenodd" fill="#F5BF11" d="M103.118,157.949c-17.226,0.575-11.889-14.956-18.18-20.983
		C94.472,139.905,97.776,148.428,103.118,157.949z"/>
	<path fill-rule="evenodd" clip-rule="evenodd" fill="#F5C017" d="M78.006,92.095c-2.12-1.799-1.779-3.605-0.021-5.417
		c6.218-6.4,13.272-9.299,21.985-5.246l-0.244-0.086C96.942,93.936,84.287,86.572,78.006,92.095z"/>
	<path fill-rule="evenodd" clip-rule="evenodd" fill="#F7CD59" d="M50.945,111.181c2.324,4.828,4.003,9.643-0.312,14.33
		c-2.493-1.439-2.269-3.861-2.249-6.211C51.509,117.309,50.105,113.891,50.945,111.181z"/>
	<path fill-rule="evenodd" clip-rule="evenodd" fill="#F5C221" d="M40.206,128.604c-0.876-2.046-1.752-4.093-2.627-6.139
		c0.876-2.758,1.752-5.516,2.628-8.271c2.557-0.187,3.976,0.543,2.734,3.405C43.019,121.514,42.962,125.396,40.206,128.604z"/>
	<path fill-rule="evenodd" clip-rule="evenodd" fill="#F5C21F" d="M80.552,149.577c4.104,1.045,5.611,3.544,4.975,7.338
		c-0.071,0.419-1.571,1.063-2.142,0.858C79.259,156.299,79.1,153.347,80.552,149.577z"/>
	<path fill-rule="evenodd" clip-rule="evenodd" fill="#F5C52A" d="M42.941,117.6c-0.912-1.136-1.823-2.271-2.734-3.405
		c0.733-1.927,1.465-3.851,2.198-5.774c1.147,2.726,5.302,3.126,5.245,6.787C46.082,116.006,44.511,116.803,42.941,117.6z"/>
	<path fill-rule="evenodd" clip-rule="evenodd" fill="#FEFDFA" d="M118.848,72.889c-12.802-5.886-25.742-3.754-38.059,0.775
		c-10.056,3.698-13.846,2.497-13.597-9.142c0.25-11.695,2.158-21.972,14.091-26.485c5.958-2.254,0.865-10.522,7.645-11.255
		c1.033-0.12,2.065-0.24,3.098-0.359c2.197,5.771,5.109,10.613,10.11,14.937C111.524,49.479,116.072,60.885,118.848,72.889z"/>
	<path fill-rule="evenodd" clip-rule="evenodd" fill="#F6C52F" d="M94.906,56.095c-5.274,1.175-10.549,2.347-18.143,4.036
		C83.073,51.898,89.083,54.48,94.906,56.095z"/>
</g>
</svg>
