<?xml version="1.0" encoding="utf-8"?>
<!-- Generator: Adobe Illustrator 16.0.4, SVG Export Plug-In . SVG Version: 6.00 Build 0)  -->
<!DOCTYPE svg PUBLIC "-//W3C//DTD SVG 1.1//EN" "http://www.w3.org/Graphics/SVG/1.1/DTD/svg11.dtd">
<svg version="1.1" id="Layer_1" xmlns="http://www.w3.org/2000/svg" xmlns:xlink="http://www.w3.org/1999/xlink" x="0px" y="0px"
	 width="219.156px" height="219.167px" viewBox="0 0 219.156 219.167" enable-background="new 0 0 219.156 219.167"
	 xml:space="preserve">
<g>
	<g opacity="0.75">
		<path fill="#512F75" d="M218.698,101.109l-0.12,0.011c-0.429-4.235-3.795-7.604-8.023-8.024h-1.84h-3.102v-0.055
			c-5.295,0-9.888-3.056-12.095-7.511c-0.53-1.088-0.935-2.262-1.151-3.498c-0.999-2.772-2.125-5.471-3.386-8.106
			c0-0.009,0-0.009-0.009-0.018c-0.633-0.934-1.143-1.95-1.531-3.028c0-0.012,0-0.019,0-0.019c-0.5-1.41-0.768-2.928-0.768-4.503
			c0-3.723,1.5-7.101,3.951-9.533h-0.016l0,0l2.746-2.748c0.038-0.024,0.071-0.055,0.11-0.09c0.025-0.038,0.063-0.074,0.088-0.11
			c3.205-3.302,3.37-8.436,0.515-11.931l0.055-0.036c-2.104-2.525-4.309-4.939-6.625-7.249c-2.371-2.376-4.84-4.628-7.419-6.772
			l-0.03,0.03c-3.166-2.59-7.691-2.683-10.969-0.285l-1.975,1.979l-1.849,1.838l-0.085-0.084c-3.931,3.946-9.696,4.94-14.562,2.984
			c-0.663-0.256-1.3-0.578-1.913-0.95c-3.103-1.501-6.307-2.828-9.602-3.956c-0.584-0.145-1.149-0.34-1.72-0.566
			c0,0-0.007,0-0.017-0.018c-1.61-0.64-3.132-1.637-4.449-2.948c-2.194-2.202-3.476-4.975-3.842-7.849
			c-0.145-1.124-0.145-2.25,0-3.376V12.37c0-4.428-3.204-8.105-7.411-8.858c-0.523-0.053-1.041-0.088-1.572-0.134h-0.009
			C117.1,3.131,114.107,3,111.078,3c-3.03,0-6.022,0.131-8.997,0.378h-0.007c-0.532,0.046-1.051,0.081-1.582,0.134
			c-4.211,0.753-7.402,4.431-7.402,8.858v4.009c0,5.802-3.642,10.741-8.775,12.645c-0.318,0.13-0.659,0.239-0.998,0.329
			c-3.604,1.226-7.088,2.674-10.446,4.336C72.85,33.7,72.85,33.71,72.832,33.71c-0.263,0.148-0.53,0.274-0.816,0.404
			c-1.712,0.784-3.604,1.224-5.609,1.224c-3.722,0-7.101-1.518-9.531-3.954l-0.029,0.021l-2.844-2.836
			c-3.132-3.129-7.972-3.478-11.474-1.042c-0.403,0.329-0.808,0.658-1.189,0.987c-0.021,0.017-0.039,0.037-0.055,0.056
			c-2.299,1.937-4.505,3.97-6.625,6.092c-2.125,2.115-4.156,4.322-6.086,6.607c0,0-0.009,0-0.009,0.02
			c-0.348,0.402-0.695,0.817-1.023,1.227c-2.453,3.511-2.103,8.36,1.023,11.489l2.834,2.836c4.085,4.09,4.999,10.152,2.747,15.118
			C34,72.27,33.852,72.58,33.682,72.875c-1.658,3.347-3.103,6.834-4.313,10.412c-0.106,0.382-0.238,0.748-0.381,1.117
			c0,0,0,0,0,0.019c-0.66,1.7-1.676,3.31-3.057,4.682c-2.635,2.639-6.077,3.954-9.536,3.954v0.037H12.37
			c-4.427,0-8.108,3.191-8.855,7.4c-0.055,0.523-0.102,1.054-0.148,1.586l0,0C3.128,104.989,3,108.119,3,111.083l0,0
			c0,0.03,0,0.058,0,0.072c0,0.03,0,0.058,0,0.073l0,0c0,2.984,0.128,5.932,0.366,8.842v0.016c0.046,0.521,0.094,1.044,0.148,1.574
			c0.748,4.211,4.419,7.413,8.839,7.413c0,0,0,0,0.016,0h4.025l0,0c5.745,0,10.641,3.596,12.592,8.657c0,0.01,0,0.019,0,0.019
			c0.126,0.336,0.246,0.677,0.326,1.017c0.021,0.018,0.021,0.033,0.038,0.061c1.208,3.589,2.665,7.084,4.318,10.451
			c0.022,0.017,0.029,0.035,0.039,0.055c0.145,0.256,0.277,0.529,0.404,0.806c0.787,1.712,1.224,3.622,1.224,5.618
			c0,3.726-1.509,7.101-3.952,9.542l0.016,0.021l-2.744,2.743c-0.035,0.029-0.072,0.062-0.106,0.101
			c-0.039,0.034-0.076,0.073-0.102,0.11c-2.992,3.091-3.34,7.815-1.007,11.274c0.395,0.474,0.786,0.949,1.181,1.403
			c1.92,2.271,3.935,4.449,6.04,6.557l0,0c2.104,2.104,4.3,4.135,6.568,6.055c0.46,0.388,0.916,0.771,1.374,1.155
			c3.12,2.105,7.262,2.028,10.321-0.202l1.977-1.977l1.848-1.848l0.081,0.07c4.089-4.081,10.166-4.994,15.145-2.723
			c0.256,0.106,0.512,0.236,0.749,0.366c0.018,0.016,0.047,0.016,0.064,0.034c3.387,1.686,6.91,3.147,10.531,4.376
			c0.313,0.089,0.624,0.198,0.925,0.311c1.765,0.66,3.43,1.684,4.857,3.109c2.636,2.635,3.953,6.076,3.953,9.534h0.039v3.939
			c0,4.643,3.532,8.488,8.069,8.946v0.053c3.268,0.312,6.57,0.459,9.919,0.459c3.349,0,6.641-0.147,9.918-0.459l-0.009-0.053
			c4.53-0.458,8.079-4.304,8.079-8.946v-4.013c0-5.418,3.183-10.083,7.777-12.227c0.935-0.438,1.921-0.767,2.949-0.986
			c2.962-1.04,5.835-2.233,8.636-3.587c0.808-0.529,1.683-0.969,2.601-1.299c1.461-0.549,3.055-0.858,4.721-0.858
			c3.421,0,6.548,1.279,8.938,3.401c0.411,0.347,0.798,0.732,1.165,1.154l2.293,2.303l0.009-0.015
			c3.167,3.163,8.126,3.479,11.64,0.933c0.018,0,0.03-0.02,0.039-0.034c0.293-0.24,0.572-0.479,0.858-0.714
			c2.363-1.995,4.632-4.084,6.807-6.26c2.18-2.18,4.262-4.45,6.259-6.811c0.256-0.309,0.511-0.619,0.77-0.934
			c2.469-3.386,2.248-8.105-0.616-11.282l-0.009-0.009l-0.638-0.64l0,0l-2.507-2.514v-0.01c-4.029-4.029-4.98-9.955-2.856-14.882
			c0.2-0.455,0.421-0.912,0.676-1.353c1.592-3.239,2.99-6.605,4.172-10.065c0.128-0.46,0.277-0.914,0.46-1.353
			c0.65-1.687,1.665-3.26,3.017-4.621c2.626-2.628,6.077-3.942,9.537-3.942v-0.021h3.879v-0.055c4.801,0,8.737-3.779,8.975-8.526
			l0.135,0.02c0.268-3.114,0.404-6.261,0.404-9.429C219.156,107.717,218.998,104.394,218.698,101.109z M166.326,111.083
			L166.326,111.083c0,6.297-1.046,12.354-2.983,17.99c-0.731,2.149-1.602,4.236-2.58,6.261c-2.69,5.523-6.297,10.539-10.577,14.856
			c-4.3,4.313-9.298,7.917-14.814,10.637c-2.043,1.005-4.147,1.882-6.306,2.634c-5.635,1.954-11.694,3.018-17.988,3.037
			c-0.056,0-0.11,0-0.166,0c-6.238,0-12.222-1.023-17.823-2.928c-2.253-0.751-4.427-1.665-6.523-2.691
			c-5.499-2.688-10.479-6.259-14.759-10.535c-4.322-4.288-7.924-9.287-10.632-14.803c-1.024-2.084-1.933-4.244-2.69-6.468
			c-1.924-5.6-2.974-11.604-2.983-17.86c0.018-6.24,1.06-12.52,2.983-18.118c0.757-2.226,1.667-4.384,2.69-6.469
			c2.715-5.518,6.311-10.515,10.632-14.806c4.317-4.302,9.331-7.896,14.856-10.587c2.07-1.005,4.211-1.885,6.425-2.635
			c5.601-1.906,11.584-2.928,17.823-2.928c0.056,0,0.11,0,0.166,0c6.293,0.02,12.353,1.091,17.988,3.037
			c2.159,0.75,4.263,1.629,6.293,2.638c5.528,2.715,10.526,6.331,14.814,10.632c4.275,4.303,7.845,9.278,10.535,14.759
			c1.007,2.049,1.881,4.173,2.634,6.359c1.93,5.619,2.983,11.656,2.983,17.936V111.083z"/>
	</g>
	<g>
		<path fill="#FFFFFF" d="M215.698,98.109l-0.12,0.011c-0.429-4.235-3.795-7.604-8.023-8.024h-1.84h-3.102v-0.055
			c-5.295,0-9.888-3.056-12.095-7.511c-0.53-1.088-0.935-2.262-1.151-3.498c-0.999-2.772-2.125-5.471-3.386-8.106
			c0-0.009,0-0.009-0.009-0.018c-0.633-0.934-1.143-1.95-1.531-3.028c0-0.012,0-0.019,0-0.019c-0.5-1.41-0.768-2.928-0.768-4.503
			c0-3.723,1.5-7.101,3.951-9.533h-0.016l0,0l2.746-2.748c0.038-0.024,0.071-0.055,0.11-0.09c0.025-0.038,0.063-0.074,0.088-0.11
			c3.205-3.302,3.37-8.436,0.515-11.931l0.055-0.036c-2.104-2.525-4.309-4.939-6.625-7.249c-2.371-2.376-4.84-4.628-7.419-6.772
			l-0.03,0.03c-3.166-2.59-7.691-2.683-10.969-0.285l-1.975,1.979l-1.849,1.838l-0.085-0.084c-3.931,3.946-9.696,4.94-14.562,2.984
			c-0.663-0.256-1.3-0.578-1.913-0.95c-3.103-1.501-6.307-2.828-9.602-3.956c-0.584-0.145-1.149-0.34-1.72-0.566
			c0,0-0.007,0-0.017-0.018c-1.61-0.64-3.132-1.637-4.449-2.948c-2.194-2.202-3.476-4.975-3.842-7.849
			c-0.145-1.124-0.145-2.25,0-3.376V9.37c0-4.428-3.204-8.105-7.411-8.858c-0.523-0.053-1.041-0.088-1.572-0.134h-0.009
			C114.1,0.131,111.107,0,108.078,0c-3.03,0-6.022,0.131-8.997,0.378h-0.007c-0.532,0.046-1.051,0.081-1.582,0.134
			C93.281,1.265,90.09,4.942,90.09,9.37v4.009c0,5.802-3.642,10.741-8.775,12.645c-0.318,0.13-0.659,0.239-0.998,0.329
			c-3.604,1.226-7.088,2.674-10.446,4.336C69.85,30.7,69.85,30.71,69.832,30.71c-0.263,0.148-0.53,0.274-0.816,0.404
			c-1.712,0.784-3.604,1.224-5.609,1.224c-3.722,0-7.101-1.518-9.531-3.954l-0.029,0.021l-2.844-2.836
			c-3.132-3.129-7.972-3.478-11.474-1.042c-0.403,0.329-0.808,0.658-1.189,0.987c-0.021,0.017-0.039,0.037-0.055,0.056
			c-2.299,1.937-4.505,3.97-6.625,6.092c-2.125,2.115-4.156,4.322-6.086,6.607c0,0-0.009,0-0.009,0.02
			c-0.348,0.402-0.695,0.817-1.023,1.227c-2.453,3.511-2.103,8.36,1.023,11.489l2.834,2.836c4.085,4.09,4.999,10.152,2.747,15.118
			C31,69.27,30.852,69.58,30.682,69.875c-1.658,3.347-3.103,6.834-4.313,10.412c-0.106,0.382-0.238,0.748-0.381,1.117
			c0,0,0,0,0,0.019c-0.66,1.7-1.676,3.31-3.057,4.682c-2.635,2.639-6.077,3.954-9.536,3.954v0.037H9.37
			c-4.427,0-8.108,3.191-8.855,7.4c-0.055,0.523-0.102,1.054-0.148,1.586l0,0C0.128,101.989,0,105.119,0,108.083l0,0
			c0,0.03,0,0.058,0,0.072c0,0.03,0,0.058,0,0.073l0,0c0,2.984,0.128,5.932,0.366,8.842v0.016c0.046,0.521,0.094,1.044,0.148,1.574
			c0.748,4.211,4.419,7.413,8.839,7.413c0,0,0,0,0.016,0h4.025l0,0c5.745,0,10.641,3.596,12.592,8.657c0,0.01,0,0.019,0,0.019
			c0.126,0.336,0.246,0.677,0.326,1.017c0.021,0.018,0.021,0.033,0.038,0.061c1.208,3.589,2.665,7.084,4.318,10.451
			c0.022,0.017,0.029,0.035,0.039,0.055c0.145,0.256,0.277,0.529,0.404,0.806c0.787,1.712,1.224,3.622,1.224,5.618
			c0,3.726-1.509,7.101-3.952,9.542l0.016,0.021l-2.744,2.743c-0.035,0.029-0.072,0.062-0.106,0.101
			c-0.039,0.034-0.076,0.073-0.102,0.11c-2.992,3.091-3.34,7.815-1.007,11.274c0.395,0.474,0.786,0.949,1.181,1.403
			c1.92,2.271,3.935,4.449,6.04,6.557l0,0c2.104,2.104,4.3,4.135,6.568,6.055c0.46,0.388,0.916,0.771,1.374,1.155
			c3.12,2.105,7.262,2.028,10.321-0.202l1.977-1.977l1.848-1.848l0.081,0.07c4.089-4.081,10.166-4.994,15.145-2.723
			c0.256,0.106,0.512,0.236,0.749,0.366c0.018,0.016,0.047,0.016,0.064,0.034c3.387,1.686,6.91,3.147,10.531,4.376
			c0.313,0.089,0.624,0.198,0.925,0.311c1.765,0.66,3.43,1.684,4.857,3.109c2.636,2.635,3.953,6.076,3.953,9.534h0.039v3.939
			c0,4.643,3.532,8.488,8.069,8.946v0.053c3.268,0.312,6.57,0.459,9.919,0.459c3.349,0,6.641-0.147,9.918-0.459l-0.009-0.053
			c4.53-0.458,8.079-4.304,8.079-8.946v-4.013c0-5.418,3.183-10.083,7.777-12.227c0.935-0.438,1.921-0.767,2.949-0.986
			c2.962-1.04,5.835-2.233,8.636-3.587c0.808-0.529,1.683-0.969,2.601-1.299c1.461-0.549,3.055-0.858,4.721-0.858
			c3.421,0,6.548,1.279,8.938,3.401c0.411,0.347,0.798,0.732,1.165,1.154l2.293,2.303l0.009-0.015
			c3.167,3.163,8.126,3.479,11.64,0.933c0.018,0,0.03-0.02,0.039-0.034c0.293-0.24,0.572-0.479,0.858-0.714
			c2.363-1.995,4.632-4.084,6.807-6.26c2.18-2.18,4.262-4.45,6.259-6.811c0.256-0.309,0.511-0.619,0.77-0.934
			c2.469-3.386,2.248-8.105-0.616-11.282l-0.009-0.009l-0.638-0.64l0,0l-2.507-2.514v-0.01c-4.029-4.029-4.98-9.955-2.856-14.882
			c0.2-0.455,0.421-0.912,0.676-1.353c1.592-3.239,2.99-6.605,4.172-10.065c0.128-0.46,0.277-0.914,0.46-1.353
			c0.65-1.687,1.665-3.26,3.017-4.621c2.626-2.628,6.077-3.942,9.537-3.942v-0.021h3.879v-0.055c4.801,0,8.737-3.779,8.975-8.526
			l0.135,0.02c0.268-3.114,0.404-6.261,0.404-9.429C216.156,104.717,215.998,101.394,215.698,98.109z M163.326,108.083
			L163.326,108.083c0,6.297-1.046,12.354-2.983,17.99c-0.731,2.149-1.602,4.236-2.58,6.261c-2.69,5.523-6.297,10.539-10.577,14.856
			c-4.3,4.313-9.298,7.917-14.814,10.637c-2.043,1.005-4.147,1.882-6.306,2.634c-5.635,1.954-11.694,3.018-17.988,3.037
			c-0.056,0-0.11,0-0.166,0c-6.238,0-12.222-1.023-17.823-2.928c-2.253-0.751-4.427-1.665-6.523-2.691
			c-5.499-2.688-10.479-6.259-14.759-10.535c-4.322-4.288-7.924-9.287-10.632-14.803c-1.024-2.084-1.933-4.244-2.69-6.468
			c-1.924-5.6-2.974-11.604-2.983-17.86c0.018-6.24,1.06-12.52,2.983-18.118c0.757-2.226,1.667-4.384,2.69-6.469
			c2.715-5.518,6.311-10.515,10.632-14.806c4.317-4.302,9.331-7.896,14.856-10.587c2.07-1.005,4.211-1.885,6.425-2.635
			c5.601-1.906,11.584-2.928,17.823-2.928c0.056,0,0.11,0,0.166,0c6.293,0.02,12.353,1.091,17.988,3.037
			c2.159,0.75,4.263,1.629,6.293,2.637c5.528,2.715,10.526,6.332,14.814,10.632c4.275,4.303,7.845,9.278,10.535,14.759
			c1.007,2.049,1.881,4.173,2.634,6.359c1.93,5.619,2.983,11.656,2.983,17.936V108.083z"/>
	</g>
</g>
<rect x="43.692" y="39.421" fill="#FFFFFF" width="125.806" height="133.911"/>
<g>
	<path fill-rule="evenodd" clip-rule="evenodd" fill="#F4BC01" d="M47.357,135.285c0-27.284,0-54.569,0-81.854
		c5.705-6.72,13.079-14.41,21.368-11.561c8.317,2.856,7.864,14.058,9.171,22.254c0.988,6.192-0.036,12.627,1.428,18.846
		c-6.28,16.92-13.377,33.467-24.218,48.087C53.318,133.467,51.305,136.399,47.357,135.285z"/>
	<path fill-rule="evenodd" clip-rule="evenodd" fill="#FEFDFA" d="M47.357,135.285c14.391-14.481,19.147-34.566,29.8-51.223
		c-1.193-6.811-3-13.658,1.215-20.139c9.486,9.225,9.264,22.233,13.145,33.646c0.182,11.984-11.189,15.904-16.693,23.927
		c-1.247,2.209-2.595,4.365-3.525,6.747c-1.207,3.035-1.856,6.216-2.541,9.395c-3.219,6.971-4.38,14.81-8.833,21.224
		c-2.985,4.303-5.482,9.968-12.568,6.438C47.357,155.292,47.357,145.291,47.357,135.285z"/>
	<path fill-rule="evenodd" clip-rule="evenodd" fill="#FEFCF8" d="M79.578,64.35c-4.35,6.134-1.132,13.2-2.421,19.712
		c-4.188-13.222,0.173-28.217-9.5-40.581c-6.186,3.032-13.243,6.491-20.3,9.949c0-19.099,0-19.099,19.099-19.099
		c10.004,0,20.009,0,30.013,0c0.852,1.125,0.87,2.262,0.069,3.413c-7.8,2.513-12.736,6.957-12.583,16.064
		C84.017,57.518,83.594,61.915,79.578,64.35z"/>
	<path fill-rule="evenodd" clip-rule="evenodd" fill="#F5BE0D" d="M47.357,165.298c13.625-5.287,14.127-19.185,19.579-29.835
		c5.26,0.171,3.148,3.496,2.627,6.139c-3.722,12.521-3.391,28.13-22.206,29.153C47.357,168.935,47.357,167.118,47.357,165.298z"/>
	<path fill-rule="evenodd" clip-rule="evenodd" fill="#F4BD03" d="M121.383,39.421c0.819-0.834,1.639-1.671,2.458-2.505
		c5.762,1.079,11.66,1.687,17.263,3.312c24.958,7.248,28.393,11.975,28.393,37.746c-0.001,30.529,0,61.057,0,95.357
		c-10.487-14.431-10.557-30.663-23.847-38.428c-3.432-2.502-7.325-3.9-11.438-4.774c-2.878-2.084-5.922-3.979-8.589-6.302
		c-3.003-2.619-2.391-7.407,0.317-7.805c14.302-2.092,17.31-12.534,19.599-24.018c0.212-1.063,1.74-1.863,2.657-2.785
		c-0.806-1.015-1.571-2.06-2.305-3.128c-4.551-12.35-9.917-24.135-20.055-33.197C122.017,49.482,120.072,44.835,121.383,39.421z"/>
	<path fill-rule="evenodd" clip-rule="evenodd" fill="#F4BD03" d="M148.206,85.887c-0.003,1.111-0.007,2.223-0.009,3.333
		c-7.619-2.946-15.121-5.454-19.111,5.127c-0.578-0.131-1.156-0.261-1.736-0.376c-8.791-2.696-15.943,2.18-23.501,5.124
		c-3.124,1.854-5.807,4.572-9.675,4.975c-2.985,0.072-4.399-1.942-5.607-4.231c-3.475-11.708-8.475-23.029-8.987-35.488
		c-1.32-7.341,1.401-14.482,1.308-21.921c-0.089-7.123,9.751-4.463,15.324-5.838c7.193,2.206,15.408-2.654,22.076,3.189
		c0.177,6.75-1.896,12.172-8.083,15.859c-4.764,2.843-7.903,7.229-9.327,12.739c-3.254,12.606,0.186,15.644,13.135,13.544
		C125.574,80.046,137.907,75.338,148.206,85.887z"/>
	<path fill-rule="evenodd" clip-rule="evenodd" fill="#F5BF0E" d="M88.565,99.838c1.64,0.88,3.28,1.756,4.92,2.633
		c0.872,5.929,0.155,12.371,5.466,16.858c0.136,0.882,0.692,2.303,0.347,2.574c-13.912,10.879-2.273,24.958-4.819,37.188
		c-0.79,3.794,4.951,10.2-2.166,10.893c-4.358,0.424-2.988-6.427-3.749-10.125c-0.536-2.611-0.585-5.321-0.852-7.988
		c-3.738-7.056-3.164-15.223-5.805-22.454c-0.633,2.158-1.732,3.522-4.166,2.881c-0.245-1.362-0.489-2.727-0.734-4.091
		c-0.587-3.16-7.505-1.431-5.245-6.789c-0.675-5.835,4.336-6.855,7.671-9.592C83.319,108.642,89.174,106.578,88.565,99.838z"/>
	<path fill-rule="evenodd" clip-rule="evenodd" fill="#F6C62C" d="M134.213,130.129c5.731-3.003,10.647-4.056,11.438,4.774
		c-1.452,10.182,3.027,20.61-1.821,31.921C140.798,153.811,141.426,140.848,134.213,130.129z"/>
	<path fill-rule="evenodd" clip-rule="evenodd" fill="#F5BF11" d="M132.476,170.947c-17.226,0.575-11.889-14.956-18.18-20.983
		C123.829,152.903,127.133,161.426,132.476,170.947z"/>
	<path fill-rule="evenodd" clip-rule="evenodd" fill="#F5C017" d="M107.364,105.093c-2.12-1.799-1.779-3.605-0.021-5.417
		c6.218-6.4,13.272-9.299,21.985-5.246l-0.244-0.086C126.299,106.934,113.644,99.57,107.364,105.093z"/>
	<path fill-rule="evenodd" clip-rule="evenodd" fill="#F7CD59" d="M80.303,124.179c2.324,4.828,4.003,9.643-0.312,14.33
		c-2.493-1.439-2.269-3.861-2.249-6.211C80.866,130.307,79.462,126.889,80.303,124.179z"/>
	<path fill-rule="evenodd" clip-rule="evenodd" fill="#F5C221" d="M69.563,141.602c-0.876-2.046-1.752-4.093-2.627-6.139
		c0.876-2.758,1.752-5.516,2.628-8.271c2.557-0.187,3.976,0.543,2.734,3.405C72.376,134.512,72.32,138.394,69.563,141.602z"/>
	<path fill-rule="evenodd" clip-rule="evenodd" fill="#F5C21F" d="M109.91,162.575c4.104,1.045,5.611,3.544,4.975,7.338
		c-0.071,0.419-1.571,1.063-2.142,0.858C108.616,169.297,108.458,166.345,109.91,162.575z"/>
	<path fill-rule="evenodd" clip-rule="evenodd" fill="#F5C52A" d="M72.299,130.598c-0.912-1.136-1.823-2.271-2.734-3.405
		c0.733-1.927,1.465-3.851,2.198-5.774c1.147,2.726,5.302,3.126,5.245,6.787C75.439,129.004,73.868,129.801,72.299,130.598z"/>
	<path fill-rule="evenodd" clip-rule="evenodd" fill="#FEFDFA" d="M148.206,85.887c-12.802-5.886-25.742-3.754-38.059,0.775
		c-10.056,3.698-13.846,2.497-13.597-9.142c0.25-11.695,2.158-21.972,14.091-26.485c5.958-2.254,0.865-10.522,7.645-11.255
		c1.033-0.12,2.065-0.24,3.098-0.359c2.197,5.771,5.109,10.613,10.11,14.937C140.882,62.477,145.429,73.883,148.206,85.887z"/>
	<path fill-rule="evenodd" clip-rule="evenodd" fill="#F6C52F" d="M124.264,69.093c-5.274,1.175-10.549,2.347-18.143,4.036
		C112.43,64.896,118.44,67.478,124.264,69.093z"/>
</g>
</svg>
